<svg xmlns="http://www.w3.org/2000/svg" xmlns:xlink="http://www.w3.org/1999/xlink" width="64" height="64" viewBox="0 0 64 64"><defs><path id="a" d="M.06 64V.04H64V64z"/></defs><g fill="none" fill-rule="evenodd"><mask id="b" fill="#fff"><use xlink:href="#a"/></mask><path fill="#D5915B" d="M64 32c0 17.673-14.327 32-32 32C14.327 64 0 49.673 0 32 0 14.327 14.327 0 32 0c17.673 0 32 14.327 32 32" mask="url(#b)"/><path fill="#AE7A51" d="M48 52.5c-.64 0-1.28-.244-1.768-.732l-9.463-9.464c.386-.273.76-.566 1.122-.878l8.341 8.342A2.493 2.493 0 0 0 48 50.5a2.493 2.493 0 0 0 2.292-1.5A2.502 2.502 0 0 1 48 52.5M33.922 39.39a2.497 2.497 0 0 1-.393-1.77c.132-.074.263-.15.393-.23.089.133.193.26.31.378l.819.819c-.362.295-.74.563-1.129.803"/><path fill="#4C5665" d="M48 50.5c-.64 0-1.28-.244-1.768-.732l-12-12a2.501 2.501 0 0 1 3.536-3.536l12 12A2.501 2.501 0 0 1 48 50.5"/><path fill="#76ABC4" d="M35.858 20.914c4.127 4.127 4.127 10.817 0 14.944-4.127 4.127-10.817 4.127-14.944 0-4.127-4.127-4.127-10.817 0-14.944 4.127-4.127 10.817-4.127 14.944 0"/><path fill="#AE7A51" d="M28.386 44.953a14.472 14.472 0 0 1-10.301-4.267c-5.679-5.679-5.679-14.921 0-20.6a14.472 14.472 0 0 1 10.301-4.267c3.891 0 7.549 1.515 10.3 4.267 4.722 4.721 5.518 11.903 2.39 17.455l-2.98-2.98a10.6 10.6 0 0 0 .81-5.175 10.546 10.546 0 0 0-3.048-8.472 10.535 10.535 0 0 0-7.472-3.095 10.535 10.535 0 0 0-7.472 3.095 10.546 10.546 0 0 0-3.048 8.472 10.546 10.546 0 0 0 3.048 8.472 10.535 10.535 0 0 0 7.472 3.095c1.922 0 3.844-.521 5.536-1.563.089.133.193.26.31.378l2.537 2.536a14.467 14.467 0 0 1-8.383 2.649"/><path fill="#906747" d="M36.769 42.304l-2.537-2.536a2.562 2.562 0 0 1-.31-.378c.389-.24.767-.508 1.129-.803l2.84 2.839c-.362.312-.736.605-1.122.878"/><path fill="#414A55" d="M37.891 41.426l-2.84-2.839a10.618 10.618 0 0 0 3.045-4.026l2.98 2.98a14.504 14.504 0 0 1-2.39 3.145c-.257.258-.522.504-.795.74"/><path fill="#638DA0" d="M17.866 29.386a10.546 10.546 0 0 1 3.048-8.472 10.535 10.535 0 0 1 7.472-3.095c2.704 0 5.409 1.032 7.472 3.095a10.546 10.546 0 0 1 3.048 8.472 10.522 10.522 0 0 0-3.048-6.472 10.535 10.535 0 0 0-7.472-3.095 10.535 10.535 0 0 0-7.472 3.095 10.522 10.522 0 0 0-3.048 6.472"/><path fill="#FFFFFE" d="M28.386 13.819a14.472 14.472 0 0 0-10.301 4.267c-5.679 5.679-5.679 14.921 0 20.6a14.472 14.472 0 0 0 10.301 4.267c3.891 0 7.549-1.515 10.3-4.267 5.68-5.679 5.68-14.921 0-20.6a14.468 14.468 0 0 0-10.3-4.267zm0 4c2.704 0 5.409 1.032 7.472 3.095 4.127 4.127 4.127 10.817 0 14.944a10.535 10.535 0 0 1-7.472 3.095 10.535 10.535 0 0 1-7.472-3.095c-4.127-4.127-4.127-10.817 0-14.944a10.535 10.535 0 0 1 7.472-3.095z"/></g></svg>