<svg width="40" height="40" viewBox="0 0 40 40" fill="none" xmlns="http://www.w3.org/2000/svg">
<path d="M20.0017 36.6783C29.1917 36.6766 36.6683 29.2 36.6683 20.01C36.6683 10.82 29.1917 3.34332 20 3.34332C10.8117 3.34332 3.335 10.82 3.33334 20.01C3.33334 29.2 10.81 36.6766 20.0017 36.6783V36.6783ZM20 6.67665C27.3533 6.67665 33.335 12.6583 33.335 20.01C33.335 27.3616 27.3533 33.3433 20.0017 33.345C12.6483 33.3433 6.66667 27.3616 6.66667 20.01C6.66834 12.6583 12.65 6.67665 20 6.67665Z" fill="white"/>
<path d="M20 21.6767H26.6667V18.3433H20V13.3333L13.325 20.0083L20 26.6817V21.6767Z" fill="white"/>
</svg>
