<svg xmlns="http://www.w3.org/2000/svg"  viewBox="0 0 48 48" width="48px" height="48px"><path fill="#febf10" d="M5.164,26.904c0.033,0.424-0.396,0.683-0.821,0.7c-0.425,0.017-0.822-0.232-1.108-0.548 c-0.859-0.947-0.874-2.366-0.811-3.643c0.223-4.532,0.953-9.35,3.965-12.743C7.689,9.205,9.34,8.1,10.989,7.041 c1.369-0.88,2.771-1.749,4.326-2.229c0.622-0.192,1.262-0.319,1.901-0.447c2.251-0.448,5.864-0.8,8.159-0.803 c6.635-0.008,9.206,2.341,13.032,5.298c0.786,0.608,1.57,1.224,2.268,1.931c1.5,1.518,2.569,3.418,3.349,5.404 c0.493,1.257,0.879,2.561,1.08,3.896c0.221,1.466,0.22,2.965-0.004,4.43c-0.146,0.951-0.443,1.976-1.241,2.513 s-2.096,0.227-2.169-0.733c-0.057,1.452-0.359,2.931-0.836,4.303c-1.512,4.354-4.064,8.491-7.887,11.067 c-4.118,2.774-9.493,3.481-14.276,2.147c-4.783-1.334-8.937-4.618-11.598-8.81C5.582,32.629,4.5,29.644,5.164,26.904z"/><path fill="#010101" d="M23.499,44.975c-1.654,0-3.32-0.222-4.942-0.674c-4.755-1.326-9.087-4.615-11.886-9.023 c-0.953-1.5-2.376-4.267-2.189-7.183c-0.04,0.005-0.079,0.008-0.119,0.01c-0.554-0.006-1.071-0.239-1.499-0.713 c-0.949-1.046-1.013-2.542-0.939-4.003c0.204-4.161,0.854-9.405,4.09-13.051c1.329-1.496,2.984-2.612,4.705-3.718 c1.441-0.926,2.865-1.797,4.449-2.285c0.653-0.202,1.313-0.333,1.95-0.46c2.272-0.453,5.899-0.81,8.256-0.813 c0.013,0,0.025,0,0.038,0c6.36,0,9.11,2.141,12.59,4.85l0.711,0.553c0.816,0.631,1.608,1.257,2.317,1.975 c1.4,1.418,2.563,3.293,3.459,5.573c0.551,1.404,0.914,2.714,1.109,4.004c0.229,1.522,0.228,3.064-0.005,4.582 c-0.137,0.896-0.438,2.166-1.456,2.852c-0.593,0.398-1.418,0.46-2.059,0.151c-0.138,1.054-0.393,2.13-0.753,3.168 c-1.215,3.498-3.603,8.301-8.08,11.317C30.43,43.984,26.994,44.975,23.499,44.975z M5.575,27.372 c-0.533,2.902,0.969,5.842,1.939,7.369c2.668,4.203,6.791,7.336,11.312,8.597c4.767,1.329,9.951,0.555,13.861-2.081 c4.249-2.861,6.529-7.461,7.693-10.815c0.477-1.371,0.756-2.81,0.809-4.158c0.011-0.265,0.226-0.476,0.491-0.48 c0.296,0.008,0.487,0.198,0.508,0.463c0.014,0.19,0.122,0.337,0.321,0.434c0.321,0.155,0.771,0.122,1.069-0.079 c0.527-0.354,0.854-1.045,1.026-2.173c0.217-1.419,0.219-2.858,0.005-4.281c-0.185-1.215-0.528-2.454-1.053-3.788 c-0.845-2.153-1.935-3.915-3.238-5.235c-0.666-0.674-1.429-1.277-2.218-1.887l-0.714-0.555C33.93,6.01,31.429,4.063,25.413,4.063 c-0.013,0-0.024,0-0.037,0c-2.265,0.003-5.881,0.358-8.063,0.793c-0.612,0.122-1.246,0.248-1.851,0.435 c-1.465,0.452-2.771,1.251-4.203,2.172c-1.66,1.066-3.254,2.14-4.498,3.54c-3.029,3.412-3.644,8.438-3.84,12.436 c-0.058,1.161-0.057,2.468,0.683,3.283c0.227,0.25,0.474,0.418,0.718,0.384c0.138-0.005,0.249-0.053,0.307-0.101 c0.016-0.072,0.031-0.146,0.049-0.218c0.058-0.239,0.276-0.403,0.526-0.38c0.246,0.02,0.439,0.215,0.459,0.46 C5.676,27.043,5.646,27.215,5.575,27.372z"/><path fill="#d6e5e5" d="M15.707,12.623c0,0,4.201,1.473,3.778,6.441c-2.434,2.163-2.86,2.32-2.86,2.32 s-3.562,0.47-5.687-2.41c-2.125-2.88,1.987-6.509,1.987-6.509S14.462,11.938,15.707,12.623z"/><path fill="#231f20" d="M25.683,23.566c-0.198-0.613-0.843-0.81-1.356-0.92c-0.513-0.11-1.044-0.091-1.568-0.057 c-0.506,0.033-1.03,0.087-1.465,0.347c-0.435,0.26-0.753,0.784-0.617,1.272c0.168,0.603,0.887,0.846,1.509,0.914 c0.708,0.078,1.427,0.053,2.128-0.074c0.517-0.094,1.07-0.276,1.35-0.72C25.782,24.143,25.808,23.748,25.683,23.566z"/><path fill="#f26322" d="M20.396,27.029c0,0,4.004,0.921,5.575,0.269c0.412,1.842,0.904,2.994,0.904,2.994s-4,2.5-7.25-0.417 C19.979,28.604,20.396,27.029,20.396,27.029z"/><path fill="#231f20" d="M13.183,12.302c0,0-3.918,2.137-2.41,6.355c1.165,2.727,6.048,2.889,6.048,2.889l-1.164,2.548 c0,0-4.125,1.426-6.594-1.85c-2.469-3.276-0.738-6.65-0.13-7.38S10.365,12.98,13.183,12.302z"/><path fill="#231f20" d="M27.25,18.656c0,0-1.267-5.313,5.085-6.906c-1.78,1.789-3.862,4.69-0.817,7.267 c3.045,2.577,6.234,1.265,6.999,0.671c-0.798,2.938-2.548,4.375-6.907,4.313C30.666,21.851,30.562,20.656,27.25,18.656z"/><path fill="#d6e5e5" d="M33.406,11.75c0,0,5.283,1.219,5.11,6.969c-0.256,0.815,0.608,1.781-3.204,1.781 c-4.947,0-5.819-4.308-5.285-5.639C30.56,13.53,30.75,12.375,33.406,11.75z"/><path fill="#010101" d="M37.981,14.531c-0.837-1.443-2.172-2.516-3.662-2.941c-1.926-0.555-4.149,0.001-5.665,1.409 c-1.304,1.212-2.06,3.042-2.06,4.885c-0.197-0.048-0.394-0.095-0.61-0.135c-2.195-0.407-4.28-0.212-6.005,0.527 c0.085-2.998-2.237-5.93-5.216-6.435c-0.425-0.072-0.853-0.089-1.279-0.063c-0.016-0.001-0.033,0.003-0.049,0.005 c-2.707,0.185-5.277,2.239-5.856,4.926c-0.136,0.636-0.186,1.341-0.155,2.218c0.025,0.717,0.104,1.648,0.487,2.487 c0.446,0.972,1.297,1.823,2.529,2.53c1.147,0.658,2.319,0.995,3.394,0.995c0.31,0,0.612-0.029,0.904-0.086 c-0.442,1.483-0.676,3.009-0.854,4.466c-0.098,0.804-0.171,1.589,0,2.366c0.212,0.963,0.797,1.731,1.564,2.058 c0.295,0.125,0.596,0.18,0.893,0.18c0.901,0,1.765-0.505,2.293-1.105c0.577-0.655,0.901-1.452,1.157-2.217 c1.056,0.818,2.387,1.262,3.728,1.262c1.032,0,2.057-0.259,2.95-0.772c0.198,0.521,0.445,1.034,0.81,1.478 c0.613,0.746,1.459,1.158,2.299,1.104c1.116-0.074,2.117-0.986,2.676-2.439c0.9-2.339,0.629-4.732,0.063-6.658 c2.858-0.137,4.901-1.055,5.902-2.679c0.461-0.748,0.726-1.697,0.785-2.822C39.091,17.408,38.737,15.837,37.981,14.531z M34.044,12.551c1.244,0.356,2.364,1.261,3.072,2.482c0.659,1.138,0.966,2.517,0.89,3.987c-0.002,0.033-0.007,0.061-0.009,0.094 c-0.048,0.03-0.094,0.065-0.13,0.112c-0.396,0.509-1.104,0.833-1.893,0.866c-0.662,0.037-1.378-0.118-2.312-0.476 c-0.934-0.356-1.594-0.74-2.079-1.205c-0.85-0.815-1.275-2.047-1.11-3.212c0.165-1.167,0.914-2.232,1.956-2.78 c0.011-0.006,0.017-0.016,0.028-0.023C32.994,12.361,33.532,12.403,34.044,12.551z M18.95,18.68 c-0.005,0.039,0.005,0.076,0.009,0.113c-0.911,0.562-1.634,1.276-2.216,2.024c-0.316,0.123-1.466,0.061-2.024-0.083 c-1.052-0.271-1.609-0.498-2.647-1.235c-0.758-0.539-1.036-1.409-1.136-2.045c-0.034-0.212-0.032-0.449,0.005-0.746 c0.188-1.479,1.084-3.256,2.659-3.941c0.331-0.014,0.665,0.004,0.996,0.06C17.247,13.276,19.281,16.011,18.95,18.68z M10.938,23.076c-1.049-0.602-1.762-1.302-2.118-2.08c-0.309-0.674-0.374-1.442-0.396-2.105c-0.028-0.792,0.015-1.419,0.134-1.972 c0.316-1.471,1.346-2.698,2.648-3.432c-0.653,0.868-1.112,1.945-1.258,3.095c-0.05,0.395-0.05,0.722-0.001,1.029 c0.187,1.182,0.72,2.116,1.544,2.702c1.184,0.841,1.847,1.099,2.978,1.39c0.15,0.038,0.847,0.165,1.545,0.177 c-0.342,0.574-0.613,1.137-0.815,1.636c-0.024,0.058-0.038,0.119-0.061,0.177C13.981,24.17,12.455,23.945,10.938,23.076z M20.114,29.601c-0.001-0.001-0.002-0.001-0.003-0.002l0.648-2.059c0.921,0.345,1.94,0.525,2.932,0.525 c0.654,0,1.286-0.093,1.877-0.247c0.158,0.784,0.354,1.559,0.587,2.323c-0.026,0.01-0.053,0.013-0.078,0.029 C24.26,31.285,21.694,31.041,20.114,29.601z M25.241,24.063c-0.148,0.235-0.481,0.397-1.016,0.494 c-0.657,0.12-1.324,0.142-1.984,0.069c-0.463-0.051-0.99-0.223-1.083-0.551c-0.07-0.255,0.144-0.562,0.393-0.71 c0.339-0.203,0.799-0.248,1.241-0.277c0.203-0.014,0.42-0.026,0.641-0.026c0.265,0,0.534,0.019,0.789,0.073 c0.6,0.128,0.895,0.302,0.985,0.584c0.015,0.046,0.021,0.063,0.049,0.104C25.274,23.875,25.264,24.018,25.241,24.063z M22.132,25.621c0.287,0.031,0.575,0.048,0.863,0.048c0.471,0,0.942-0.043,1.408-0.127c0.308-0.056,0.565-0.142,0.798-0.243 c0.049,0.514,0.114,1.025,0.194,1.534c-1.323,0.369-2.953,0.282-4.336-0.248l0.352-1.117C21.629,25.54,21.87,25.592,22.132,25.621z M31.32,30.873c-0.155,0.404-0.746,1.73-1.809,1.801c-0.525,0.036-1.058-0.25-1.459-0.741c-0.384-0.467-0.618-1.05-0.853-1.78 c-0.588-1.831-0.945-3.735-1.068-5.658c0.154-0.322,0.192-0.802,0.006-1.141c-0.33-0.901-1.327-1.114-1.706-1.195 c-0.593-0.128-1.19-0.101-1.706-0.066c-0.563,0.037-1.159,0.1-1.688,0.418c-0.576,0.344-1.051,1.085-0.842,1.836 c0.061,0.218,0.188,0.403,0.343,0.572l-1.512,4.801c-0.262,0.832-0.559,1.774-1.143,2.438c-0.487,0.554-1.349,0.963-2.045,0.666 c-0.464-0.197-0.838-0.715-0.979-1.353c-0.138-0.625-0.074-1.289,0.016-2.03c0.224-1.831,0.529-3.77,1.25-5.548 c0.537-1.327,1.558-3.143,3.366-4.254c1.674-1.028,3.918-1.348,6.311-0.906c1.017,0.188,1.77,0.461,2.372,0.858 c0.82,0.543,1.493,1.391,2.181,2.749C31.258,24.119,32.582,27.596,31.32,30.873z M31.993,23.594 c-0.244-0.658-0.508-1.238-0.745-1.706c-0.479-0.945-1.26-2.298-2.522-3.132c-0.335-0.221-0.708-0.406-1.123-0.565 c-0.093-1.673,0.557-3.366,1.733-4.46c0.286-0.266,0.604-0.489,0.94-0.68c-0.411,0.599-0.692,1.287-0.793,2.008 c-0.209,1.479,0.331,3.04,1.408,4.073c0.768,0.737,1.745,1.163,2.414,1.418c0.622,0.238,1.543,0.546,2.521,0.546 c0.063,0,0.127-0.002,0.19-0.004c0.627-0.027,1.198-0.201,1.691-0.474c-0.094,0.272-0.203,0.529-0.34,0.751 C36.294,23.113,33.855,23.541,31.993,23.594z"/></svg>