<svg xmlns="http://www.w3.org/2000/svg" viewBox="0 0 64 64"><g data-name="Douge De Bordeaux-Dog"><path fill="#aa6100" d="M42,44.64V57H36V46l5.72-1.72A1.935,1.935,0,0,0,42,44.64Z"/><path fill="#9e5a00" d="M42,44.64v2a1.935,1.935,0,0,1-.28-.36L36,48V46l5.72-1.72A1.935,1.935,0,0,0,42,44.64Z"/><path fill="#aa6100" d="M61,22V34a2.006,2.006,0,0,1-2,2H50l-3-6h4l2,2h4V26A4,4,0,0,1,61,22Z"/><path fill="#cc7400" d="M52,40V61H46V46H45a3.984,3.984,0,0,1-3-1.36,1.935,1.935,0,0,1-.28-.36L36,46H29V61H23V46H17V61H11V25l2,2H24l5-6v3a4,4,0,0,0,4,4H46Z"/><polygon fill="#ee8700" points="29 9 29 21 24 27 13 27 9 23 9 17 10 14 10 7 13 3 26 3 29 9"/><polygon fill="#aa6100" points="29 21 29 23 24 29 13 29 11 27 11 25 13 27 24 27 29 21"/><polygon fill="#cc7400" points="38 14 38 16 32 16 29 12.97 29 9 26 3 31 3 33 7 33 11 35 13 38 14"/><polygon fill="#cc7400" points="13 3 10 7 10 12.97 7 16 3 16 3 14 5 13 6 11 6 7 8 3 13 3"/><path fill="#ff6243" d="M15,21h1l2-2,2,2h1v1a2.006,2.006,0,0,1-2,2H17a2.006,2.006,0,0,1-2-2Z"/><path d="M61,21a5.006,5.006,0,0,0-5,5v5H53.414l-1.707-1.707A1,1,0,0,0,51,29H47.618L46.9,27.553A1,1,0,0,0,46,27H33a3,3,0,0,1-3-3V15.4l1.289,1.3A1,1,0,0,0,32,17h6a1,1,0,0,0,1-1V14a1,1,0,0,0-.684-.949l-2.776-.925L34,10.586V7a1,1,0,0,0-.1-.447l-2-4A1,1,0,0,0,31,2H8a1,1,0,0,0-.895.553l-2,4A1,1,0,0,0,5,7v3.764l-.745,1.491-1.7.85A1,1,0,0,0,2,14v2a1,1,0,0,0,1,1H7a1,1,0,0,0,.711-.3l.5-.509-.163.489A1,1,0,0,0,8,17v6a1,1,0,0,0,.293.707L10,25.414V61a1,1,0,0,0,1,1h6a1,1,0,0,0,1-1V47h4V61a1,1,0,0,0,1,1h6a1,1,0,0,0,1-1V47h5V57a1,1,0,0,0,1,1h6a1,1,0,0,0,1-1V46.576A4.95,4.95,0,0,0,45,47V61a1,1,0,0,0,1,1h6a1,1,0,0,0,1-1V40a1,1,0,0,0-.1-.447L51.618,37H59a3,3,0,0,0,3-3V22A1,1,0,0,0,61,21ZM32,7.236V11a1,1,0,0,0,.293.707l2,2a1,1,0,0,0,.391.242L37,14.721V15H32.417L30,12.557V9a1,1,0,0,0-.105-.447L27.618,4h2.764ZM13.5,4H25.382L28,9.236v11.4L23.532,26H13.414L10,22.586V17.162l.949-2.846A1,1,0,0,0,11,14V7.333ZM6.583,15H4v-.382L5.447,13.9a1,1,0,0,0,.448-.448l1-2A1,1,0,0,0,7,11V7.236L8.618,4H11L9.2,6.4A1,1,0,0,0,9,7v5.557ZM37,56V46.743l4-1.2V56Zm14,4H47V46a1,1,0,0,0-1-1H45a3,3,0,0,1-3-3V36H40v6a4.953,4.953,0,0,0,.3,1.661L35.853,45H30.618l.277-.553A1,1,0,0,0,31,44V40a1,1,0,0,0-.105-.447l-1-2-1.79.894L29,40.236v3.528l-.895,1.789.01,0A.978.978,0,0,0,28,46V60H24V46a1,1,0,0,0-1-1H17a1,1,0,0,0-1,1V60H12V27.414l.293.293A1,1,0,0,0,13,28H24a1,1,0,0,0,.768-.36L28,23.762V24a5.006,5.006,0,0,0,5,5H45.382L51,40.236Zm9-26a1,1,0,0,1-1,1H50.618l-2-4h1.968l1.707,1.707A1,1,0,0,0,53,33h4a1,1,0,0,0,1-1V26a3.006,3.006,0,0,1,2-2.829Z"/><path d="M23.168 32.445l-2 3A1.006 1.006 0 0 0 21 36v2h2V36.3L24.535 34H26V32H24A1 1 0 0 0 23.168 32.445zM16.832 32.445A1 1 0 0 0 16 32H14v2h1.465L17 36.3V38h2V36a1.006 1.006 0 0 0-.168-.555zM13.293 21.707A1 1 0 0 0 14 22a3 3 0 0 0 3 3h2a3 3 0 0 0 3-3 1 1 0 0 0 .707-.293l1-1A1 1 0 0 0 24 20V18H22v1.586L21.586 20H20.414L19 18.586V17a1 1 0 0 0 .707-.293l1-1A1 1 0 0 0 21 15V14H19v.586L18.586 15H17.414L17 14.586V14H15v1a1 1 0 0 0 .293.707l1 1A1 1 0 0 0 17 17v1.586L15.586 20H14.414L14 19.586V18H12v2a1 1 0 0 0 .293.707zM18 20.414l1.293 1.293A1 1 0 0 0 20 22a1 1 0 0 1-1 1H17a1 1 0 0 1-1-1 1 1 0 0 0 .707-.293z"/><rect width="2" height="2" x="21" y="10"/><rect width="2" height="2" x="13" y="10"/></g></svg>